<svg width="105" height="100" viewBox="0 0 105 100" fill="none" xmlns="http://www.w3.org/2000/svg">
<path d="M85.3567 0H71.9329L33.7297 25.7993H24.6933L34.8033 0H23.4408L0 59.7317H11.3625L21.562 33.8495H30.9562L46.5571 48.0696L49.6179 40.2717L40.9767 30.7767L85.3567 0Z" fill="black"/>
<path d="M82.9037 40.2681H49.6212L46.5608 48.0661H78.5196C89.3454 48.0661 92.9241 50.7207 90.1508 57.8549C87.6454 64.7399 80.5775 66.399 69.0358 66.399H50.695L54.8591 55.8636H43.5L26.1805 99.9999H67.8729C80.2196 99.9999 90.1508 97.0136 94.1766 87.2244C97.3083 79.3436 94.1767 72.5378 85.3192 70.2982C93.1925 68.7219 98.8291 64.989 101.424 58.5182C105.539 47.9828 99.8133 40.2681 82.9037 40.2681ZM83.7087 84.819C81.4721 90.4599 76.6408 92.2019 65.01 92.2019H40.585L47.8321 73.6994H69.9308C81.9196 73.6994 86.4825 77.5186 83.7087 84.819Z" fill="black"/>
</svg>
