<svg width="131" height="61" viewBox="0 0 131 61" fill="none" xmlns="http://www.w3.org/2000/svg">
<path d="M38.3678 33.4138C42.3278 31.8298 45.6398 30.8218 48.0878 30.3898C49.5278 30.1018 49.8878 29.9578 49.6718 29.7418C49.5278 29.5978 49.2397 29.5978 48.3758 29.7418C44.8478 30.1738 38.6558 32.1178 32.6078 34.7098L30.5198 35.5738L29.1518 35.1418C27.0638 34.4938 24.3278 33.9178 19.8638 33.1258C15.1118 32.3338 14.0318 32.1178 11.6558 31.4698C6.03975 30.0298 2.94375 27.7978 2.58375 24.9178C2.43975 23.9818 2.65575 22.7578 3.30375 21.2458C5.60775 15.3418 14.0318 7.70984 21.7358 4.68584C25.5518 3.17384 29.0798 2.88584 30.0158 4.03784C30.3038 4.32584 30.0878 5.40584 29.5118 6.55784C28.2878 9.22184 25.3358 12.9658 24.3998 13.1818C23.6798 13.3978 23.5358 13.6138 23.9678 13.9738C24.2558 14.3338 25.1918 14.3338 25.9838 13.9738C28.2158 12.9658 31.8158 8.78983 32.8958 6.05384C33.2558 5.11784 33.3278 3.67784 33.0398 2.81384C32.6078 1.58984 31.3118 0.581836 29.6558 0.149836C28.4318 -0.138165 26.1998 0.00583282 24.6158 0.437836C18.8558 1.94984 10.6478 7.49384 5.53575 13.3258C2.72775 16.4938 1.07175 19.3738 0.279752 22.2538C-0.0802485 23.4778 -0.0802484 25.4938 0.207752 26.5018C0.999752 29.1658 3.23175 31.2538 6.75975 32.5498C9.71175 33.6298 11.9438 34.1338 18.7118 35.0698C23.1758 35.7178 26.9198 36.3658 27.6398 36.6538C27.8558 36.7258 27.6398 36.8698 25.6238 37.8778C18.7838 41.3338 11.8718 45.6538 7.19175 49.4698C5.67975 50.6938 3.08775 53.2858 2.36775 54.3658C0.711752 56.5258 0.279752 58.2538 1.21575 59.4058C1.57575 59.9818 2.43975 60.4138 3.30375 60.4858C3.73575 60.5578 4.31175 60.6298 4.59975 60.6298C4.81575 60.6298 5.46375 60.5578 5.89575 60.4858C8.70375 60.2698 15.3278 58.4698 20.2958 56.5978C25.2638 54.7258 29.6558 52.4938 32.6798 50.2618C34.1198 49.1818 36.0638 47.2378 36.7118 46.3018C38.3678 43.6378 38.2238 41.1898 36.2078 39.0298C35.4158 38.1658 34.1198 37.2298 32.8958 36.6538C32.4638 36.5098 32.1758 36.2938 32.1758 36.2218C32.2477 36.0778 36.0638 34.4218 38.4398 33.4858L38.3678 33.4138ZM33.5438 39.2458C35.4158 40.5418 36.0638 42.0538 35.6318 43.6378C34.9838 45.7258 32.0318 48.6778 28.2158 51.1258C23.1038 54.3658 14.1038 57.7498 8.19975 58.6858C6.54375 58.9738 4.52775 58.9738 3.73575 58.7578C3.44775 58.6858 3.08775 58.5418 2.94375 58.3258C2.65575 58.0378 2.65575 58.0378 2.79975 57.4618C3.23175 55.8058 5.67975 52.8538 8.84775 50.2618C13.3838 46.4458 19.4318 42.5578 27.2798 38.4538L29.5838 37.3018L30.1598 37.4458C31.0238 37.6618 32.6798 38.4538 33.5438 39.1018V39.2458ZM65.2064 24.7738C62.2544 26.0698 58.7984 27.1498 56.3504 27.5818C55.6304 27.7258 55.5584 27.7258 55.1264 27.4378C54.8384 27.2938 54.6224 27.1498 54.5504 27.1498C54.5504 27.1498 54.4063 26.8618 54.3344 26.5738C54.1184 25.9258 53.6864 25.4218 53.0384 25.2778C51.8144 24.9178 50.3024 25.8538 49.2224 27.7258L48.7904 28.4458L48.3584 29.3818C48.4304 29.3818 48.3584 29.6698 48.2864 29.9578C47.7104 31.3978 47.7104 33.8458 48.2864 35.0698C48.7184 36.1498 49.6544 36.7258 50.7344 36.5818C51.6704 36.5098 52.3184 36.1498 53.3984 34.9978C55.1984 33.1258 56.2784 30.6778 55.9184 29.0938C55.8464 28.8058 55.8464 28.5898 55.8464 28.5898C55.8464 28.5898 56.5664 28.3738 57.5024 28.0858C59.3744 27.5818 61.5344 26.7898 64.2704 25.6378C64.5584 25.5658 64.9184 25.4218 65.2784 25.2778C65.3503 25.2058 65.4224 25.1338 65.4224 25.0618C65.4224 24.9178 65.2064 24.7738 65.0624 24.8458L65.2064 24.7738ZM51.5264 34.2778C50.5904 34.7818 50.3744 34.6378 50.5184 33.6298C50.5904 32.9818 51.5984 30.9658 52.4624 29.7418C53.1104 28.8778 53.1824 28.8058 53.6144 28.8058C54.1904 28.7338 54.4784 29.0938 54.4784 29.9578C54.4784 31.4698 53.1104 33.4858 51.5984 34.2778H51.5264ZM79.6958 26.0698C79.6958 25.8538 79.4078 25.7098 79.1917 25.8538C78.2558 26.4298 77.8238 26.6458 76.5998 27.4378C72.9998 29.8138 69.5437 31.9738 68.9678 32.3338C66.9518 33.4858 65.0798 33.9178 64.5038 33.4858C64.3598 33.4138 64.3597 33.2698 64.3597 32.5498C64.3597 29.1658 68.6797 24.1258 69.7598 23.7658C70.4078 23.5498 70.9118 21.3898 70.0478 21.1018C69.4718 20.9578 68.4637 21.0298 67.8877 21.3178C67.2397 21.6058 65.8717 22.9738 65.0798 23.9098C64.7197 24.4138 63.9278 25.9258 63.7118 26.3578C62.1998 29.7418 62.0558 33.1978 63.4238 34.3498C64.2158 35.0698 65.2238 35.0698 66.8798 34.4218C68.6798 33.7018 70.1918 32.7658 78.1838 27.3658C79.0478 26.7898 78.9038 26.8618 79.4798 26.5018C79.6237 26.3578 79.6957 26.2858 79.6237 26.1418L79.6958 26.0698ZM93.4016 24.7738C90.4496 26.0698 86.9937 27.1498 84.5457 27.5818C83.8257 27.7258 83.7537 27.7258 83.3217 27.4378C83.0337 27.2938 82.8176 27.1498 82.7457 27.1498C82.7457 27.1498 82.6017 26.8618 82.5297 26.5738C82.3137 25.9258 81.8817 25.4218 81.2337 25.2778C80.0097 24.9178 78.4977 25.8538 77.4177 27.7258L76.9856 28.4458L76.5536 29.3818C76.6256 29.3818 76.5536 29.6698 76.4817 29.9578C75.9057 31.3978 75.9057 33.8458 76.4817 35.0698C76.9137 36.1498 77.8496 36.7258 78.9296 36.5818C79.8656 36.5098 80.5136 36.1498 81.5937 34.9978C83.3937 33.1258 84.4737 30.6778 84.1137 29.0938C84.0417 28.8058 84.0416 28.5898 84.0416 28.5898C84.0416 28.5898 84.7617 28.3738 85.6977 28.0858C87.5697 27.5818 89.7297 26.7898 92.4657 25.6378C92.7537 25.5658 93.1137 25.4218 93.4737 25.2778C93.5457 25.2058 93.6177 25.1338 93.6177 25.0618C93.6177 24.9178 93.4016 24.7738 93.2577 24.8458L93.4016 24.7738ZM79.7216 34.2778C78.7857 34.7818 78.5697 34.6378 78.7137 33.6298C78.7857 32.9818 79.7937 30.9658 80.6577 29.7418C81.3057 28.8778 81.3777 28.8058 81.8097 28.8058C82.3857 28.7338 82.6737 29.0938 82.6737 29.9578C82.6737 31.4698 81.3057 33.4858 79.7937 34.2778H79.7216ZM110.123 10.1578C111.563 7.99784 113.075 5.47784 113.291 4.82984C113.723 3.89384 113.219 3.10184 112.283 3.24584C111.779 3.31784 111.707 3.46184 110.267 5.47784C107.891 8.78984 106.163 11.7418 104.147 15.7738C103.571 17.0698 102.707 18.5818 102.347 19.2298C99.7551 23.1178 96.1551 28.3018 94.9311 29.9578C92.3391 33.4858 89.9631 35.6458 89.7471 34.6378C89.6751 33.7018 92.9871 28.6618 94.1391 27.7978C94.6431 27.4378 94.7151 27.3658 95.2191 27.4378C95.9391 27.5098 96.2991 27.2938 96.4431 26.8618C96.5871 26.3578 96.4431 25.9978 96.1551 25.6378C95.7231 25.1338 95.147 24.9898 94.355 25.1338C92.411 25.4218 89.6751 28.7338 89.0271 30.4618C88.5231 31.6138 87.9471 33.0538 88.1631 34.3498C88.1631 34.7818 88.2351 35.2858 88.5231 35.6458C89.3871 36.7978 90.827 36.4378 92.6991 34.7098C94.1391 33.3418 95.0751 32.1898 97.6671 28.5898L100.115 25.1338L99.3951 27.7258C98.0271 32.0458 97.595 34.5658 97.883 36.5818C97.955 37.8058 98.0271 37.9498 98.3871 38.3818C98.9631 39.1738 99.3951 39.3178 100.619 39.1018C101.627 38.9578 101.699 38.8858 102.707 38.2378C104.795 36.7978 106.523 34.1338 109.115 30.7498L111.923 26.7898C111.995 26.6458 111.995 26.4298 111.995 26.2858C111.851 25.7818 111.563 25.9258 111.275 26.3578C109.043 29.6698 102.491 40.2538 99.3951 37.5898C98.243 36.5818 99.6831 32.0458 102.131 26.2138C104.795 19.8058 107.891 13.6858 110.267 10.1578H110.123ZM130.482 26.0698C130.41 25.8538 130.194 25.8538 130.05 25.9258C128.466 27.4378 127.458 28.3018 126.378 29.1658C122.346 32.4058 120.042 33.3418 120.042 31.6858C120.042 31.3258 120.69 29.3818 121.194 28.1578C121.698 26.9338 121.698 26.1418 121.266 25.7098C121.122 25.5658 120.762 25.4218 120.546 25.3498L120.114 25.2778L120.042 24.1258C120.042 22.6858 119.682 21.8218 118.962 21.1018C117.666 19.7338 115.794 20.0938 113.85 22.0378C112.266 23.6218 110.898 25.8538 110.106 28.3018C109.17 31.0378 109.314 32.7658 110.466 33.4858C110.97 33.8458 111.474 33.8458 112.194 33.4138C112.77 33.1258 115.866 30.6778 117.378 29.3098L118.17 28.6618L118.098 29.5258C117.954 30.6058 118.17 31.9738 118.458 32.6218C118.602 32.8378 118.89 33.1978 119.178 33.4138C119.466 33.6298 119.682 33.7018 120.33 33.6298C122.058 33.5578 124.362 31.9738 130.266 26.5018C130.338 26.3578 130.41 26.2858 130.266 26.1418L130.482 26.0698ZM117.882 27.3658C117.018 28.2298 113.634 30.8218 112.338 31.6138C111.618 31.9738 111.618 31.9738 111.618 31.6858C111.618 30.3898 114.714 24.7018 116.154 23.3338C116.802 22.6858 116.802 22.6858 117.018 22.9018C117.306 23.1898 117.738 24.4138 117.954 25.8538C118.098 26.9338 118.098 26.9338 117.882 27.2218V27.3658Z" fill="#494949"/>
</svg>
